<svg xmlns="http://www.w3.org/2000/svg" width="721" height="721" viewBox="0 0 721 721" fill="none">
<path fill-rule="evenodd" clip-rule="evenodd" d="M720.593 360.401C720.593 559.224 559.416 720.401 360.593 720.401C161.771 720.401 0.593262 559.224 0.593262 360.401C0.593262 161.579 161.771 0.401367 360.593 0.401367C559.416 0.401367 720.593 161.579 720.593 360.401ZM308.941 521.619C286.821 521.619 265.742 514.769 246.833 504.2C228.28 493.266 213.296 477.959 201.879 458.278C190.819 438.233 185.289 414.907 185.289 388.302C185.289 362.061 191.308 340.952 200.941 321.271C210.931 301.59 225.006 286.813 243.202 275.88C261.398 264.946 281.619 257.097 306.236 257.097C320.507 257.097 335.584 258.255 348.072 263.358C360.559 268.46 369.386 276.231 377.948 283.885C381.396 286.82 384.381 290.803 386.903 294.168C387.555 295.038 388.177 295.869 388.767 296.628V264.923H459.202V514.587H388.767V481.766C382.426 490.32 373.377 501.967 362.158 509.097C346.104 518.937 328.921 521.619 308.941 521.619ZM326.158 460.575C364.194 460.575 395.028 429.041 395.028 390.141C395.028 351.24 364.194 319.706 326.158 319.706C288.123 319.706 257.289 351.24 257.289 390.141C257.289 429.041 288.123 460.575 326.158 460.575ZM394.747 191.291C402.908 199.683 413.012 203.88 425.059 203.88C437.105 203.88 447.015 199.683 454.787 191.291C462.948 182.899 467.028 172.509 467.028 160.12C467.028 148.931 462.948 139.339 454.787 131.347C446.626 123.354 436.717 119.358 425.059 119.358C413.012 119.358 402.908 123.354 394.747 131.347C386.587 139.339 382.506 148.931 382.506 160.12C382.506 172.509 386.587 182.899 394.747 191.291Z" fill="black"/>
<path fill-rule="evenodd" clip-rule="evenodd" d="M308.941 521.619C286.821 521.619 265.742 514.769 246.833 504.2C228.28 493.266 213.296 477.959 201.879 458.278C190.819 438.233 185.289 414.907 185.289 388.302C185.289 362.061 191.308 340.952 200.941 321.271C210.931 301.59 225.006 286.813 243.202 275.88C261.398 264.946 281.619 257.097 306.236 257.097C320.507 257.097 335.584 258.255 348.072 263.358C360.559 268.46 369.386 276.231 377.948 283.885C381.396 286.82 384.381 290.803 386.903 294.168C387.555 295.038 388.177 295.869 388.767 296.628V264.923H459.202V514.587H388.767V481.766C382.426 490.32 373.377 501.967 362.158 509.097C346.104 518.937 328.921 521.619 308.941 521.619ZM326.158 460.575C364.194 460.575 395.028 429.041 395.028 390.141C395.028 351.24 364.194 319.706 326.158 319.706C288.123 319.706 257.289 351.24 257.289 390.141C257.289 429.041 288.123 460.575 326.158 460.575Z" fill="white"/>
<path d="M425.059 203.88C413.012 203.88 402.908 199.683 394.747 191.291C386.587 182.899 382.506 172.509 382.506 160.12C382.506 148.931 386.587 139.339 394.747 131.347C402.908 123.354 413.012 119.358 425.059 119.358C436.717 119.358 446.626 123.354 454.787 131.347C462.948 139.339 467.028 148.931 467.028 160.12C467.028 172.509 462.948 182.899 454.787 191.291C447.015 199.683 437.105 203.88 425.059 203.88Z" fill="white"/>
</svg>
